<?xml version="1.0" encoding="UTF-8"?>
<svg xmlns="http://www.w3.org/2000/svg" width="24" height="24" viewBox="0 0 24 24" fill="none">
  <path fill-rule="evenodd" clip-rule="evenodd" d="M4 3.98764C4 3.08779 4 2.63787 4.18912 2.37582C4.3541 2.14721 4.60793 1.99886 4.88809 1.96731C5.20922 1.93114 5.60123 2.15196 6.38526 2.59359L20.6094 10.6059C21.4189 11.0619 21.8237 11.2899 21.9585 11.5894C22.0761 11.8505 22.0761 12.1495 21.9585 12.4106C21.8237 12.7101 21.4189 12.9381 20.6094 13.394L6.38526 21.4064C5.60123 21.848 5.20922 22.0689 4.88809 22.0327C4.60793 22.0011 4.3541 21.8528 4.18912 21.6242C4 21.3621 4 20.9122 4 20.0124V3.98764Z" fill="#111111"></path>
</svg>
