<?xml version="1.0" encoding="UTF-8"?>
<svg width="111px" height="41px" viewBox="0 0 111 41" version="1.1" xmlns="http://www.w3.org/2000/svg" xmlnsXlink="http://www.w3.org/1999/xlink" xmlnsSketch="http://www.bohemiancoding.com/sketch/ns">
    <!-- Generator: Sketch 3.4.2 (15855) - http://www.bohemiancoding.com/sketch -->
    <title>Built by Paul</title>
    <desc>Created with Sketch.</desc>
    <defs></defs>
    <g id="Page-1" stroke="none" stroke-width="1" fill="none" fill-rule="evenodd" sketchType="MSPage">
        <g id="logo_built_robotics" sketchType="MSLayerGroup">
            <path d="M8.1796875,39.7714844 C7.2695267,40.1113298 6.11914758,40.28125 4.72851562,40.28125 C4.49413945,40.28125 4.28418062,40.1835947 4.09863281,39.9882812 C3.91308501,39.7929678 3.8203125,39.5839855 3.8203125,39.3613281 L3.8203125,33.1503906 C3.80859369,32.8847643 3.79882816,32.619142 3.79101562,32.3535156 C3.77929682,32.0527329 3.78906234,31.7988292 3.8203125,31.5917969 C3.87500027,31.2246075 4.21679373,31.0019535 4.84570312,30.9238281 C5.14257961,30.8378902 5.63476219,30.7949219 6.32226562,30.7949219 C7.06055057,30.7949219 7.76757475,31.0332007 8.44335938,31.5097656 C9.23633209,32.0644559 9.6328125,32.7578083 9.6328125,33.5898438 C9.6328125,34.0390647 9.55078207,34.4179672 9.38671875,34.7265625 C9.25781186,34.9765637 9.03320473,35.2441392 8.71289062,35.5292969 C9.09179877,35.7128915 9.42773291,35.9902325 9.72070312,36.3613281 C10.052736,36.7753927 10.21875,37.1874979 10.21875,37.5976562 C10.21875,38.1171901 9.93554971,38.6093727 9.36914062,39.0742188 C8.99023248,39.382814 8.59375207,39.6152336 8.1796875,39.7714844 L8.1796875,39.7714844 Z M6.32226562,32.3828125 C5.81835686,32.3828125 5.51562551,32.3867187 5.4140625,32.3945312 L5.41992188,33.6367188 L5.4140625,34.8671875 C5.76953303,34.9101565 6.03710848,34.9238282 6.21679688,34.9082031 C7.41211535,34.8144527 8.00976562,34.3750039 8.00976562,33.5898438 C8.00976562,33.3124986 7.83398613,33.0449232 7.48242188,32.7871094 C7.11913881,32.5175768 6.73242393,32.3828125 6.32226562,32.3828125 L6.32226562,32.3828125 Z M7.0078125,36.5253906 C6.65234197,36.5253906 6.12109729,36.5117189 5.4140625,36.484375 L5.4140625,38.6757812 C6.08594086,38.6406248 6.8144492,38.5117199 7.59960938,38.2890625 C8.28711281,38.093749 8.62695316,37.8828136 8.61914062,37.65625 C8.60742182,37.3554672 8.3867209,37.0878918 7.95703125,36.8535156 C7.62109207,36.6660147 7.30468898,36.5566408 7.0078125,36.5253906 L7.0078125,36.5253906 Z M23.8367186,32.7695312 C23.6374988,33.1796896 23.2371122,34.0663994 22.6355467,35.4296875 C22.1355442,36.5703182 21.7097672,37.4648405 21.3582029,38.1132812 C20.7488249,39.2382869 20.4226563,39.833984 20.3796873,39.9003906 C20.1492174,40.2402361 19.8835951,40.4101562 19.5828123,40.4101562 C19.3679675,40.4101562 19.1785163,40.3398445 19.0144529,40.1992188 C18.8347645,40.042968 18.7449217,39.8496105 18.7449217,39.6191406 C18.7449217,39.4277334 19.1531207,38.623054 19.9695311,37.2050781 C19.6687483,36.7714822 19.237112,36.1132857 18.6746092,35.2304688 C18.2527321,34.582028 17.6335976,33.6035222 16.8171873,32.2949219 C16.7390619,32.1621087 16.6999998,32.0234382 16.6999998,31.8789062 C16.6999998,31.6523426 16.7878896,31.4609383 16.9636717,31.3046875 C17.127735,31.1601555 17.3191393,31.0878906 17.5378904,31.0878906 C17.7957042,31.0878906 18.0300769,31.2187487 18.2410154,31.4804688 L18.6804686,32.1835938 C18.7078124,32.230469 19.0437466,32.8007758 19.6882811,33.8945312 C20.0945331,34.5937535 20.4539045,35.1464823 20.7664061,35.5527344 C21.0632825,34.9550751 21.4910126,34.0507873 22.0496092,32.8398438 C22.1667973,32.5703112 22.3425768,32.1621121 22.5769529,31.6152344 C22.7253912,31.2636701 22.9792949,31.0878906 23.3386717,31.0878906 C23.5535165,31.0878906 23.7429677,31.1582024 23.9070311,31.2988281 C24.0867195,31.4511726 24.1765623,31.642577 24.1765623,31.8730469 C24.1765623,32.00586 24.0632822,32.3046852 23.8367186,32.7695312 L23.8367186,32.7695312 Z M55.8136711,36.7304688 C55.7472645,36.7304688 55.5832037,36.716797 55.3214836,36.6894531 C55.298046,37.2363309 55.2863274,38.1347594 55.2863274,39.3847656 C55.2863274,39.5917979 55.2140625,39.7695305 55.0695305,39.9179688 C54.9249985,40.066407 54.7414066,40.140625 54.5187492,40.140625 C54.2960919,40.140625 54.1115234,40.066407 53.9650383,39.9179688 C53.8185532,39.7695305 53.7453117,39.5917979 53.7453117,39.3847656 L53.7453117,37.75 C53.7453117,37.1445282 53.7843738,36.2480528 53.8624992,35.0605469 C53.9367184,33.8535096 53.9757805,32.953128 53.9796867,32.359375 C53.983593,31.3437449 54.2687464,30.8574217 54.8351555,30.9003906 C54.9679687,30.8652342 55.1515606,30.8388673 55.3859367,30.8212891 C55.6203129,30.8037108 55.9054663,30.7949219 56.2414055,30.7949219 C57.0070343,30.7949219 57.7257771,31.0429663 58.3976555,31.5390625 C59.143753,32.0937528 59.5167961,32.7695273 59.5167961,33.5664062 C59.5167961,34.5664113 59.1203157,35.3613252 58.327343,35.9511719 C57.6242145,36.4707057 56.7863322,36.7304688 55.8136711,36.7304688 L55.8136711,36.7304688 Z M56.1066399,32.3066406 C55.9816392,32.3066406 55.8712888,32.3076172 55.7755852,32.3095703 C55.6798816,32.3115234 55.5988277,32.3164062 55.5324211,32.3242188 C55.5324211,32.5078134 55.530468,32.7832013 55.5265617,33.1503906 C55.5187492,33.5839865 55.4816402,34.259761 55.4152336,35.1777344 C55.6144534,35.2089845 55.7472645,35.2246094 55.8136711,35.2246094 C56.4230492,35.2246094 56.9289035,35.0800796 57.3312492,34.7910156 C57.7609389,34.4824203 57.9757805,34.0742213 57.9757805,33.5664062 C57.9757805,33.2343733 57.7746106,32.9394544 57.3722649,32.6816406 C56.9855442,32.4316394 56.5636734,32.3066406 56.1066399,32.3066406 L56.1066399,32.3066406 Z M73.3105459,40.1757812 C73.0019506,40.1640624 72.6914069,39.8007848 72.3789053,39.0859375 C72.171873,38.6249977 71.9941404,38.093753 71.8457022,37.4921875 C71.5566382,37.5351565 71.0839867,37.5781248 70.4277334,37.6210938 C69.8105428,37.6640627 69.3378913,37.7148435 69.0097647,37.7734375 C68.8300763,38.2031271 68.5175794,38.8496051 68.0722647,39.7128906 C67.9003888,39.994142 67.6621099,40.1347656 67.3574209,40.1347656 C67.1425761,40.1347656 66.9492187,40.0615242 66.7773428,39.9150391 C66.6054669,39.768554 66.5195303,39.5820324 66.5195303,39.3554688 C66.5195303,39.156249 66.8046837,38.4804745 67.374999,37.328125 C67.3203113,37.2070306 67.296874,37.0937505 67.3046865,36.9882812 C67.3203116,36.8007803 67.5097629,36.6542974 67.8730459,36.5488281 C68.4277362,35.5878858 69.0449175,34.591802 69.7246084,33.5605469 C70.7011758,32.0800707 71.3027323,31.3398438 71.5292959,31.3398438 C71.9589856,31.3398438 72.2460921,31.5996068 72.390624,32.1191406 C72.4687494,32.5371115 72.5917951,33.1640583 72.7597647,34 C72.9980471,35.1250056 73.2890598,36.4121021 73.6328115,37.8613281 C73.6601554,37.9707037 73.7597638,38.2285136 73.9316397,38.6347656 C74.0722654,38.9707048 74.1425772,39.2226554 74.1425772,39.390625 C74.1425772,39.6171886 74.0576171,39.8066399 73.8876944,39.9589844 C73.7177716,40.1113289 73.5253907,40.1835938 73.3105459,40.1757812 L73.3105459,40.1757812 Z M71.124999,34.1640625 C70.82031,34.6875026 70.4003923,35.4003861 69.8652334,36.3027344 C70.0410156,36.2636717 70.3144503,36.232422 70.6855459,36.2089844 C71.1230481,36.1816405 71.398436,36.1601563 71.5117178,36.1445312 C71.4179673,35.6367162 71.2890624,34.9765666 71.124999,34.1640625 L71.124999,34.1640625 Z M87.7253895,38.9863281 C87.4402318,39.3730488 87.0964852,39.6953112 86.6941395,39.953125 C86.2019495,40.2656266 85.6960952,40.421875 85.1765614,40.421875 C84.1804626,40.421875 83.4402357,40.2304707 82.9558582,39.8476562 C81.9324156,39.0390585 81.420702,37.6347756 81.420702,35.6347656 C81.420702,35.4433584 81.4304675,35.158205 81.4499989,34.7792969 C81.4695302,34.4003887 81.4792957,34.1152353 81.4792957,33.9238281 C81.4792957,33.7714836 81.4832019,33.5439468 81.4910145,33.2412109 C81.498827,32.938475 81.5027332,32.7109383 81.5027332,32.5585938 C81.5027332,32.2460922 81.5593733,31.9511733 81.6726551,31.6738281 C81.8249996,31.3066388 82.0378881,31.1230469 82.311327,31.1230469 C82.5261718,31.1230469 82.715623,31.1933587 82.8796864,31.3339844 C83.0593748,31.4824226 83.1492176,31.673827 83.1492176,31.9082031 C83.1492176,32.1308605 83.1462879,32.4677712 83.1404285,32.9189453 C83.1345691,33.3701194 83.1316395,33.7089832 83.1316395,33.9355469 C83.1316395,34.1230478 83.121874,34.4062481 83.1023426,34.7851562 C83.0828113,35.1640644 83.0730457,35.4472647 83.0730457,35.6347656 C83.0730457,36.2402374 83.1433575,36.8027318 83.2839832,37.3222656 C83.4480466,37.9433625 83.6882785,38.3769519 84.0046864,38.6230469 C84.1687497,38.7519538 84.5593708,38.8203125 85.1765614,38.828125 C86.2078165,38.8437501 86.9031221,37.9648526 87.2624989,36.1914062 C87.4499998,35.2734329 87.5437489,33.9843833 87.5437489,32.3242188 C87.5437489,32.1054677 87.6082013,31.8945323 87.7371082,31.6914062 C87.9128904,31.4218737 88.1628879,31.2871094 88.4871082,31.2871094 C88.7527346,31.2871094 88.9519513,31.3847646 89.0847645,31.5800781 C89.1863275,31.7246101 89.2371082,31.8847647 89.2371082,32.0605469 C89.2371082,33.6035233 89.1648433,34.8066363 89.0203114,35.6699219 C88.8015603,37.0019598 88.369924,38.1074175 87.7253895,38.9863281 L87.7253895,38.9863281 Z M102.110936,39.7773438 C101.649996,39.9804698 100.937113,40.1621086 99.9722643,40.3222656 C99.0894474,40.4707039 98.3648452,40.5449219 97.7984362,40.5449219 C96.8414001,40.5449219 96.3628893,40.1250042 96.3628893,39.2851562 C96.3628893,39.3515628 96.4019514,38.7324284 96.4800768,37.4277344 C96.5816398,35.7324134 96.6324205,33.8457135 96.6324205,31.7675781 C96.6324205,31.5449208 96.7095682,31.3554695 96.8638659,31.1992188 C97.0181635,31.042968 97.2124975,30.9648438 97.4468737,30.9648438 C97.6812498,30.9648438 97.8765604,31.042968 98.0328112,31.1992188 C98.1890619,31.3554695 98.2671862,31.5449208 98.2671862,31.7675781 C98.2671862,33.8496198 98.2144523,35.7675694 98.108983,37.5214844 C98.0738266,37.8339859 98.0367176,38.3124968 97.9976549,38.9570312 C98.9234408,38.9414062 100.110929,38.7148459 101.560155,38.2773438 C101.649999,38.2499999 101.735936,38.2363281 101.817967,38.2363281 C102.064062,38.2363281 102.263279,38.326171 102.415624,38.5058594 C102.552343,38.6660164 102.620702,38.8457021 102.620702,39.0449219 C102.620702,39.3808611 102.450782,39.6249992 102.110936,39.7773438 L102.110936,39.7773438 Z" id="BY--PAUL" fill="#1A1918" sketchType="MSShapeGroup"></path>
            <path d="M0,0 L3.26455,0 L8.60156,0 L18.7109,0 C20.9331,0 22.445,0.378054 23.4104,1.29618 C24.5944,2.43034 25.2137,4.03257 25.2137,7.00299 C25.2137,10.8195 23.7383,12.2237 20.8967,12.9078 L20.8967,12.9798 C24.0115,13.5919 25.4505,14.9601 25.4505,19.1907 C25.4505,22.6832 24.7037,24.1414 23.5561,25.2396 C22.5543,26.1937 20.8967,26.6438 18.7838,26.6438 L3.26455,26.6438 L3.26455,5.51609 L0,0 L0,0 Z M9.53053,4.75267 L16.6526,4.75267 C17.6909,4.75267 18.0369,4.86069 18.2737,5.05872 C18.5834,5.36476 18.8202,5.94084 18.8202,7.68709 C18.8202,9.50535 18.547,10.1174 18.2373,10.4595 C17.9641,10.6935 17.6544,10.7295 16.6526,10.7295 L9.53053,10.7295 L9.53053,4.75267 L9.53053,4.75267 Z M18.4741,21.5491 C18.2009,21.8191 17.8184,21.8551 16.853,21.8551 L9.53053,21.8551 L9.53053,15.1041 L16.853,15.1041 C17.8548,15.1041 18.2009,15.2122 18.4741,15.4462 C18.7838,15.7882 19.057,16.2923 19.057,18.5606 C19.057,20.7749 18.7838,21.243 18.4741,21.5491 L18.4741,21.5491 Z M46.0482,20.8289 C46.5036,20.3789 46.7403,19.8748 46.7403,16.1843 L46.7221,16.1843 L46.7221,0 L53.0428,0 L53.0428,15.7522 C53.0428,22.0351 52.3506,23.6373 50.9298,25.0415 C49.6912,26.2657 47.9972,26.6438 44.4999,26.6438 L38.6529,26.6438 C35.192,26.6438 33.498,26.2657 32.2958,25.0776 C30.875,23.6373 30.2193,22.0711 30.2193,15.7522 L30.2193,0 L36.5035,0 L36.5035,16.1843 C36.5035,19.8388 36.8132,20.4149 37.2321,20.8289 C37.6146,21.225 38.2704,21.369 40.4197,21.369 L42.9334,21.369 C45.0099,21.369 45.6657,21.207 46.0482,20.8289 L46.0482,20.8289 Z M65.2652,0 L58.9446,0 L58.9446,26.6438 L65.2652,26.6438 L65.2652,0 L65.2652,0 Z M90.2926,21.117 L90.2926,21.7291 L90.2926,26.6438 L87.4328,26.6438 L71.185,26.6438 L71.185,0 L77.4692,0 L77.4692,21.117 L90.2926,21.117 L90.2926,21.117 Z M87.818,5.52678 L87.818,0 L110.587,0 L107.327,5.52678 L101.771,5.52678 L101.771,26.6438 L95.505,26.6438 L95.505,5.52678 L87.818,5.52678 L87.818,5.52678 Z" id="Shape" fill="#111111" sketchType="MSShapeGroup"></path>
        </g>
    </g>
</svg>
