<?xml version="1.0" encoding="UTF-8"?>
<svg xmlns="http://www.w3.org/2000/svg" width="140" height="140" viewBox="0 0 140 140" fill="none">
  <g clip-path="url(#clip0_1455_41065)">
    <path fill-rule="evenodd" clip-rule="evenodd" d="M70 32C49.0132 32 32 49.0132 32 70C32 70.1006 32.0004 70.2012 32.0012 70.3016C44.5523 67.232 55.4588 67.233 68.011 70.3046C68.0824 68.0452 68.4941 66.1253 68.9863 64.368C69.1567 63.7597 69.3299 63.1906 69.5003 62.6418C66.93 63.9427 63.7936 64.0467 61.0235 62.6446C57.9252 61.0765 56.074 58.0236 55.8933 54.7934C55.8733 54.4361 56.0458 54.0953 56.3456 53.8999C59.0556 52.1328 62.6119 51.8169 65.7101 53.385C68.1481 54.619 69.8139 56.7723 70.5012 59.2079C70.5201 59.1297 70.5387 59.0511 70.5569 58.9721C71.3436 55.5613 71.3855 51.7468 68.1131 45.4615L68.1053 45.4464C66.4484 45.0947 64.9554 44.0268 64.1217 42.3993C63.1369 40.4768 63.3232 38.264 64.4133 36.5741C64.6073 36.2734 64.9473 36.0993 65.3047 36.1175C67.313 36.2201 69.2178 37.3618 70.2026 39.2843C71.1414 41.117 71.0159 43.2135 70.0578 44.8693C71.3859 47.4754 72.185 49.7157 72.6084 51.7123C73.3387 49.6634 74.7816 47.8566 76.825 46.7013C79.8477 44.9922 83.4148 45.1441 86.2033 46.7846C86.5118 46.966 86.6997 47.2985 86.6962 47.6564C86.6642 50.8914 84.9554 54.026 81.9328 55.735C79.0653 57.3563 75.708 57.3029 72.9902 55.8927C72.9473 57.1337 72.7658 58.2941 72.5057 59.4216C72.2418 60.5658 71.881 61.7261 71.5269 62.8647L71.5269 62.8647L71.5269 62.8648L71.5268 62.8649L71.5268 62.865C71.3117 63.5566 71.0991 64.2403 70.9122 64.9074C70.4137 66.6872 70.0224 68.5708 70.001 70.8068C82.6669 73.9558 95.3256 73.9564 107.992 70.8086C107.997 70.5397 108 70.2702 108 70C108 49.0132 90.9868 32 70 32ZM32.0711 72.3444C32.1484 73.6137 32.288 74.8661 32.4868 76.0987L37.3986 71.1869C35.6524 71.5077 33.8802 71.8936 32.0711 72.3444ZM34.9294 84.6561C34.0996 82.6729 33.4331 80.6043 32.9468 78.4671L40.7696 70.6443C43.7473 70.2344 46.667 70.0201 49.584 70.0015L34.9294 84.6561ZM38.8359 91.7496C37.6985 90.123 36.6853 88.4033 35.8099 86.604L52.3707 70.0432C54.8428 70.1329 57.3256 70.3627 59.8528 70.7327L38.8359 91.7496ZM43.9343 97.6512C42.5306 96.3275 41.2277 94.8981 40.0382 93.3757L62.2845 71.1294C64.3959 71.5084 66.5447 71.9829 68.7498 72.5528C68.8248 72.5722 68.8998 72.5915 68.9749 72.6106L43.9343 97.6512ZM50.166 102.42C48.4969 101.396 46.9129 100.248 45.4271 98.9868L71.254 73.1599C73.5576 73.6816 75.8614 74.1017 78.1653 74.4202L50.166 102.42ZM57.6406 105.945C55.6689 105.267 53.7705 104.432 51.9605 103.453L80.6858 74.7281C83.2634 75.0015 85.841 75.1478 88.4186 75.1669L57.6406 105.945ZM66.7247 107.861C64.3468 107.658 62.0314 107.236 59.7988 106.615L91.278 75.1359C94.2586 75.0493 97.2391 74.7927 100.219 74.3661L66.7247 107.861ZM70 108C69.8058 108 69.6118 107.999 69.4183 107.996L103.606 73.8081C105.034 73.5419 106.463 73.2365 107.892 72.8921C107.746 74.8224 107.457 76.7125 107.034 78.5516L78.5516 107.034C75.803 107.666 72.9405 108 70 108ZM105.887 82.5272L82.5272 105.887C93.4367 102.079 102.079 93.4367 105.887 82.5272ZM30 70C30 47.9086 47.9086 30 70 30C92.0914 30 110 47.9086 110 70C110 92.0914 92.0914 110 70 110C47.9086 110 30 92.0914 30 70ZM65.8057 38.1939C65.3564 39.2147 65.3548 40.4198 65.9017 41.4874C66.4487 42.5551 67.4275 43.2579 68.5186 43.4897C68.9679 42.4688 68.9695 41.2638 68.4225 40.1962C67.8756 39.1285 66.8968 38.4257 65.8057 38.1939ZM57.947 55.2716C58.265 57.5939 59.6802 59.7232 61.9266 60.8602C64.173 61.9972 66.727 61.8768 68.7866 60.758C68.4686 58.4358 67.0534 56.3065 64.807 55.1695C62.5606 54.0325 60.0066 54.1528 57.947 55.2716ZM77.8094 48.4423C80.001 47.2031 82.5577 47.2058 84.6667 48.2286C84.4558 50.5629 83.14 52.7549 80.9484 53.994C78.7568 55.2332 76.2001 55.2305 74.0911 54.2077C74.302 51.8735 75.6178 49.6814 77.8094 48.4423Z" fill="#111111"></path>
  </g>
  <defs>
    <clipPath id="clip0_1455_41065">
      <rect width="80" height="80" fill="white" transform="translate(30 30)"></rect>
    </clipPath>
  </defs>
</svg>
