<?xml version="1.0" encoding="UTF-8"?>
<svg xmlns="http://www.w3.org/2000/svg" width="140" height="140" viewBox="0 0 140 140" fill="none">
  <path fill-rule="evenodd" clip-rule="evenodd" d="M37.6829 50C44.3836 39.1955 56.3515 32 70 32C83.6485 32 95.6164 39.1955 102.317 50H94.8182C94.2852 50 93.8459 50.418 93.8194 50.9503L91.7758 92H48.2242L46.1806 50.9503C46.1541 50.418 45.7148 50 45.1818 50H37.6829ZM35.6181 53.7961C33.935 57.361 32.7901 61.2298 32.2881 65.2977L44.2947 53.2911L44.2304 52H37.4142L35.6181 53.7961ZM32.0339 68.3803C32.0114 68.9174 32 69.4574 32 70C32 72.0761 32.1665 74.1133 32.4868 76.099L44.8163 63.7695L44.4288 55.9854L32.0339 68.3803ZM32.9468 78.4674C33.4332 80.6045 34.0996 82.6731 34.9295 84.6564L45.338 74.2478L44.9504 66.4638L32.9468 78.4674ZM35.81 86.6042C36.6854 88.4034 37.6986 90.1232 38.836 91.7498L45.8596 84.7262L45.4721 76.9421L35.81 86.6042ZM40.0384 93.3759C41.2278 94.8982 42.5308 96.3276 43.9345 97.6513L47.5858 94H47.2727C46.7398 94 46.3005 93.582 46.274 93.0497L45.9937 87.4205L40.0384 93.3759ZM45.4273 98.9869C46.9131 100.248 48.4971 101.396 50.1662 102.42L58.5858 94H50.4142L45.4273 98.9869ZM51.9607 103.454C53.7707 104.432 55.6691 105.267 57.6409 105.945L69.5858 94H61.4142L51.9607 103.454ZM59.799 106.615C62.0317 107.236 64.3471 107.658 66.725 107.861L80.5858 94H72.4142L59.799 106.615ZM69.4186 107.996C69.612 107.999 69.8059 108 70 108C72.9406 108 75.8033 107.666 78.552 107.034L91.5858 94H83.4142L69.4186 107.996ZM82.5277 105.887C93.4368 102.079 102.079 93.4368 105.887 82.5277L82.5277 105.887ZM107.034 78.552C107.666 75.8033 108 72.9406 108 70C108 69.8059 107.999 69.612 107.996 69.4186L94.2165 83.1977L93.7884 91.7974L107.034 78.552ZM107.861 66.725C107.658 64.3471 107.236 62.0317 106.615 59.799L94.7928 71.6214L94.3647 80.2211L107.861 66.725ZM105.945 57.6409C105.272 55.6834 104.444 53.7982 103.475 52H103.414L95.3691 60.0451L94.941 68.6448L105.945 57.6409ZM70 30C47.9086 30 30 47.9086 30 70C30 92.0914 47.9086 110 70 110C92.0914 110 110 92.0914 110 70C110 47.9086 92.0914 30 70 30ZM70.7071 50.2929C70.3166 49.9024 69.6834 49.9024 69.2929 50.2929L62.929 56.6569C62.5384 57.0474 62.5384 57.6805 62.929 58.0711C63.3195 58.4616 63.9526 58.4616 64.3432 58.0711L69 53.4142V84.5858L64.3432 79.9289C63.9526 79.5384 63.3195 79.5384 62.929 79.9289C62.5384 80.3195 62.5384 80.9526 62.929 81.3431L69.2929 87.7071C69.6834 88.0976 70.3166 88.0976 70.7071 87.7071L77.0711 81.3431C77.4616 80.9526 77.4616 80.3195 77.0711 79.9289C76.6806 79.5384 76.0474 79.5384 75.6569 79.9289L71 84.5858V53.4142L75.6569 58.0711C76.0474 58.4616 76.6806 58.4616 77.0711 58.0711C77.4616 57.6805 77.4616 57.0474 77.0711 56.6569L70.7071 50.2929ZM95.7697 52H100.586L95.5173 57.0685L95.7697 52Z" fill="#111111"></path>
</svg>
