<?xml version="1.0" encoding="UTF-8"?>
<svg xmlns="http://www.w3.org/2000/svg" width="140" height="140" viewBox="0 0 140 140" fill="none">
  <path fill-rule="evenodd" clip-rule="evenodd" d="M69 32.0129C68.1824 32.034 67.3712 32.081 66.5672 32.153L69 34.5858V32.0129ZM64.049 32.4633C61.7988 32.8172 59.6141 33.3686 57.5134 34.0992L69 45.5858V37.4142L64.049 32.4633ZM55.4648 34.879C53.5821 35.6591 51.7757 36.5861 50.06 37.6458L66.7454 54.3312C67.4798 54.1795 68.2326 54.0781 69 54.0307V48.4142L55.4648 34.879ZM48.3513 38.7655C46.7565 39.873 45.2505 41.0995 43.8463 42.4321L59.4154 58.0012C60.9037 56.6873 62.6383 55.646 64.5412 54.9554L48.3513 38.7655ZM42.4321 43.8463C41.0995 45.2505 39.873 46.7565 38.7655 48.3513L54.9554 64.5412C55.646 62.6383 56.6873 60.9037 58.0012 59.4154L42.4321 43.8463ZM37.6457 50.06C36.5861 51.7757 35.659 53.5821 34.879 55.4648L48.4142 69H54.0307C54.0781 68.2326 54.1795 67.4798 54.3312 66.7455L37.6457 50.06ZM34.0991 57.5134C33.3686 59.6142 32.8172 61.7988 32.4633 64.0491L37.4142 69H45.5858L34.0991 57.5134ZM32.153 66.5672C32.081 67.3712 32.034 68.1824 32.0129 69H34.5858L32.153 66.5672ZM32.0129 71C32.5431 91.5246 49.3475 108 70 108C90.9868 108 108 90.9868 108 70C108 49.3475 91.5246 32.5431 71 32.0129V54.0307C79.3707 54.5469 86 61.4993 86 70C86 73.5473 84.8456 76.825 82.892 79.4778L91.3321 87.9179C91.7226 88.3084 91.7226 88.9416 91.3321 89.3321C90.9416 89.7226 90.3084 89.7226 89.9179 89.3321L81.6028 81.017C78.6876 84.0863 74.5673 86 70 86C61.4993 86 54.5469 79.3707 54.0307 71H32.0129ZM70 30C47.9086 30 30 47.9086 30 70C30 92.0914 47.9086 110 70 110C92.0914 110 110 92.0914 110 70C110 47.9086 92.0914 30 70 30ZM70 56C62.268 56 56 62.268 56 70C56 77.732 62.268 84 70 84C77.732 84 84 77.732 84 70C84 62.268 77.732 56 70 56ZM70 56.6947C70.5523 56.6947 71 57.1424 71 57.6947V57.7049C71 58.2572 70.5523 58.7049 70 58.7049C69.4477 58.7049 69 58.2572 69 57.7049V57.6947C69 57.1424 69.4477 56.6947 70 56.6947ZM70 60.7947C70.5523 60.7947 71 61.2424 71 61.7947V61.8049C71 62.3572 70.5523 62.8049 70 62.8049C69.4477 62.8049 69 62.3572 69 61.8049V61.7947C69 61.2424 69.4477 60.7947 70 60.7947ZM70 64.8947C70.5523 64.8947 71 65.3424 71 65.8947V65.9049C71 66.4572 70.5523 66.9049 70 66.9049C69.4477 66.9049 69 66.4572 69 65.9049V65.8947C69 65.3424 69.4477 64.8947 70 64.8947ZM70 68.9947C70.5523 68.9947 71 69.4424 71 69.9947V69.9998C71 70.5521 70.5523 70.9998 70 70.9998H69.9949C69.4426 70.9998 68.9949 70.5521 68.9949 69.9998C68.9949 69.7224 69.1079 69.4713 69.2904 69.2901C69.4715 69.1077 69.7226 68.9947 70 68.9947ZM56.6949 69.9998C56.6949 69.4475 57.1426 68.9998 57.6949 68.9998H57.7051C58.2574 68.9998 58.7051 69.4475 58.7051 69.9998C58.7051 70.5521 58.2574 70.9998 57.7051 70.9998H57.6949C57.1426 70.9998 56.6949 70.5521 56.6949 69.9998ZM60.7949 69.9998C60.7949 69.4475 61.2426 68.9998 61.7949 68.9998H61.8051C62.3574 68.9998 62.8051 69.4475 62.8051 69.9998C62.8051 70.5521 62.3574 70.9998 61.8051 70.9998H61.7949C61.2426 70.9998 60.7949 70.5521 60.7949 69.9998ZM64.8949 69.9998C64.8949 69.4475 65.3426 68.9998 65.8949 68.9998H65.9051C66.4574 68.9998 66.9051 69.4475 66.9051 69.9998C66.9051 70.5521 66.4574 70.9998 65.9051 70.9998H65.8949C65.3426 70.9998 64.8949 70.5521 64.8949 69.9998Z" fill="#111111"></path>
</svg>
