<?xml version="1.0" encoding="UTF-8"?>
<svg xmlns="http://www.w3.org/2000/svg" width="111" height="40" viewBox="0 0 111 40" fill="none">
  <path fill-rule="evenodd" clip-rule="evenodd" d="M5.34299 36.6667H7.25726L8.78867 40H11.0858L9.42202 36.2674C10.2458 35.982 10.6118 35.0965 10.6118 33.6757C10.6118 32.3964 10.393 31.9279 10.0284 31.5676C9.71846 31.2793 9.26268 31.1712 8.51521 31.1712H3.26465V40H5.34299V36.6667ZM8.20528 35.027C8.13235 35.0811 8.00474 35.1351 7.56719 35.1351H5.34299V32.7748H7.56719C8.00474 32.7748 8.13235 32.8288 8.20528 32.8829C8.3329 33.009 8.44228 33.2432 8.44228 33.9459C8.44228 34.6667 8.3329 34.9009 8.20528 35.027ZM22.6265 31.1712C23.5016 31.1712 23.9209 31.2973 24.2308 31.6036C24.7413 32.0721 25.1059 32.8829 25.1059 35.5856C25.1059 38.2883 24.7413 39.0991 24.2308 39.5676C23.9209 39.8739 23.5016 40 22.6265 40H19.8554C18.9803 40 18.561 39.8739 18.251 39.5676C17.7406 39.0811 17.3759 38.2883 17.3759 35.5856C17.3759 32.8649 17.7406 32.0721 18.251 31.6036C18.561 31.2973 18.9803 31.1712 19.8554 31.1712H22.6265ZM19.7824 38.2523C19.8736 38.3243 19.983 38.3604 20.4023 38.3604H22.0978C22.4989 38.3784 22.6265 38.3243 22.7176 38.2523C22.827 38.1442 22.9911 37.8198 22.9911 35.5856C22.9911 33.3333 22.827 33.027 22.7176 32.9189C22.6265 32.8288 22.5171 32.7928 22.0978 32.7928H20.4023C20.0012 32.7928 19.8736 32.8288 19.7824 32.9189C19.673 33.027 19.509 33.3333 19.509 35.5856C19.509 37.8378 19.673 38.1261 19.7824 38.2523ZM37.0645 31.1712H31.9598V39.982H37.101C37.812 39.982 38.359 39.8198 38.6871 39.5135C39.07 39.1532 39.307 38.6667 39.307 37.5135C39.307 36.1081 38.833 35.6577 37.7938 35.4595V35.4414C38.7236 35.2252 39.2158 34.7568 39.2158 33.4955C39.2158 32.5045 39.0153 31.982 38.6142 31.6036C38.3043 31.2973 37.812 31.1712 37.0645 31.1712ZM36.9005 34.6306C36.8093 34.7027 36.6999 34.7207 36.3718 34.7207H34.02V32.7387H36.3718C36.7182 32.7387 36.8275 32.7748 36.9005 32.8468C37.0099 32.9369 37.0828 33.1351 37.0828 33.7117C37.0828 34.3243 37.0099 34.5225 36.9005 34.6306ZM36.4447 36.1802C36.7729 36.1802 36.8822 36.2162 36.9734 36.2883C37.0828 36.4144 37.1739 36.5766 37.1557 37.3153C37.1557 38.0541 37.0828 38.1982 36.9734 38.3063C36.9005 38.3964 36.7546 38.4144 36.4447 38.4144H34.02V36.1802H36.4447ZM50.5331 31.1712C51.4082 31.1712 51.8275 31.2973 52.1375 31.6036C52.6479 32.0721 53.0126 32.8829 53.0126 35.5856C53.0126 38.2883 52.6479 39.0991 52.1375 39.5676C51.8275 39.8739 51.4082 40 50.5331 40H47.762C46.8869 40 46.4676 39.8739 46.1577 39.5676C45.6472 39.0811 45.2826 38.2883 45.2826 35.5856C45.2826 32.8649 45.6472 32.0721 46.1577 31.6036C46.4676 31.2973 46.8869 31.1712 47.762 31.1712H50.5331ZM47.6891 38.2523C47.7802 38.3243 47.8896 38.3604 48.3089 38.3604H50.0044C50.4055 38.3784 50.5331 38.3243 50.6243 38.2523C50.7337 38.1442 50.8978 37.8198 50.8978 35.5856C50.8978 33.3333 50.7337 33.027 50.6243 32.9189C50.5331 32.8288 50.4237 32.7928 50.0044 32.7928H48.3089C47.9079 32.7928 47.7802 32.8288 47.6891 32.9189C47.5797 33.027 47.4156 33.3333 47.4156 35.5856C47.4156 37.8378 47.5797 38.1261 47.6891 38.2523ZM63.1356 40V32.8108H65.8884V31.1712H58.3408V32.8108H61.0572V40H63.1356ZM72.5574 31.1712H74.6539V40H72.5574V31.1712ZM87.1439 40C88.0372 40 88.4383 39.8739 88.7483 39.5676C89.2223 39.1351 89.4228 38.4865 89.4775 36.7207H87.4721C87.4356 37.946 87.3262 38.1442 87.2168 38.2523C87.1257 38.3243 86.9981 38.3784 86.597 38.3604H84.9379C84.5186 38.3604 84.4092 38.3243 84.3181 38.2523C84.2087 38.1261 84.0446 37.8378 84.0446 35.5856C84.0446 33.3333 84.2087 33.027 84.3181 32.9189C84.4092 32.8288 84.5368 32.7928 84.9379 32.7928H86.597C87.0163 32.7928 87.1257 32.8288 87.2168 32.9189C87.3262 33.027 87.4356 33.2613 87.4721 34.3604H89.4593C89.441 32.7207 89.2223 32.0541 88.7483 31.6036C88.4383 31.2973 88.0372 31.1712 87.1439 31.1712H84.4092C83.5341 31.1712 83.1148 31.2973 82.8049 31.6036C82.2944 32.0721 81.9298 32.8649 81.9298 35.5856C81.9298 38.2883 82.2944 39.0811 82.8049 39.5676C83.1148 39.8739 83.5341 40 84.4092 40H87.1439ZM100.46 40C101.171 40 101.573 39.8559 101.846 39.5856C102.247 39.1892 102.448 38.5586 102.448 37.3333C102.448 36.1261 102.302 35.6396 101.955 35.2973C101.682 35.027 101.336 34.9189 100.716 34.8469L97.9628 34.5766C97.5799 34.5405 97.4341 34.5225 97.3429 34.4324C97.2335 34.3243 97.2153 34.1441 97.2153 33.6937C97.2153 33.2252 97.2335 32.955 97.3247 32.8649C97.3976 32.7748 97.5435 32.7568 97.8716 32.7568H99.6401C100.005 32.7568 100.114 32.8108 100.187 32.8829C100.278 32.973 100.315 33.1712 100.333 33.964H102.302C102.284 32.4144 102.12 31.9279 101.755 31.5496C101.481 31.2793 101.026 31.1712 100.26 31.1712H97.1788C96.5043 31.1712 96.085 31.3153 95.8115 31.5856C95.3922 32 95.1917 32.6306 95.1917 33.7478C95.1917 34.9369 95.3375 35.4054 95.6839 35.7658C95.9574 36.036 96.322 36.1622 96.9418 36.2342L99.6583 36.5045C100.005 36.5225 100.205 36.5766 100.278 36.6487C100.406 36.7568 100.424 36.9369 100.424 37.3874C100.424 37.9099 100.388 38.1802 100.296 38.2703C100.205 38.3604 100.041 38.3784 99.6765 38.3784H97.7805C97.4159 38.3784 97.2882 38.3423 97.2153 38.2703C97.1424 38.1982 97.0877 37.982 97.0695 37.1171H95.1005C95.1187 38.7027 95.2646 39.2433 95.6292 39.6036C95.9391 39.8919 96.3767 40 97.1242 40H100.46Z" fill="#111111"></path>
  <path fill-rule="evenodd" clip-rule="evenodd" d="M0 0H3.26455H8.60156H18.7109C20.9331 0 22.445 0.378054 23.4104 1.29618C24.5944 2.43034 25.2137 4.03257 25.2137 7.00299C25.2137 10.8195 23.7383 12.2237 20.8967 12.9078V12.9798C24.0115 13.5919 25.4505 14.9601 25.4505 19.1907C25.4505 22.6832 24.7037 24.1414 23.5561 25.2396C22.5543 26.1937 20.8967 26.6438 18.7838 26.6438H3.26455V5.51609L0 0ZM9.53053 4.75267H16.6526C17.6909 4.75267 18.0369 4.86069 18.2737 5.05872C18.5834 5.36476 18.8202 5.94084 18.8202 7.68709C18.8202 9.50535 18.547 10.1174 18.2373 10.4595C17.9641 10.6935 17.6544 10.7295 16.6526 10.7295H9.53053V4.75267ZM18.4741 21.5491C18.2009 21.8191 17.8184 21.8551 16.853 21.8551H9.53053V15.1041H16.853C17.8548 15.1041 18.2009 15.2122 18.4741 15.4462C18.7838 15.7882 19.057 16.2923 19.057 18.5606C19.057 20.7749 18.7838 21.243 18.4741 21.5491ZM46.0482 20.8289C46.5036 20.3789 46.7403 19.8748 46.7403 16.1843H46.7221V0H53.0428V15.7522C53.0428 22.0351 52.3506 23.6373 50.9298 25.0415C49.6912 26.2657 47.9972 26.6438 44.4999 26.6438H38.6529C35.192 26.6438 33.498 26.2657 32.2958 25.0776C30.875 23.6373 30.2193 22.0711 30.2193 15.7522V0H36.5035V16.1843C36.5035 19.8388 36.8132 20.4149 37.2321 20.8289C37.6146 21.225 38.2704 21.369 40.4197 21.369H42.9334C45.0099 21.369 45.6657 21.207 46.0482 20.8289ZM65.2652 0H58.9446V26.6438H65.2652V0ZM90.2926 21.117V21.7291V26.6438H87.4328H71.185V0H77.4692V21.117H90.2926ZM87.818 5.52678V0H110.587L107.327 5.52678H101.771V26.6438H95.505V5.52678H87.818Z" fill="#111111"></path>
</svg>
